<mxfile host="app.diagrams.net" agent="Mozilla/5.0 (Windows NT 10.0; Win64; x64) AppleWebKit/537.36 (KHTML, like Gecko) Chrome/128.0.0.0 Safari/537.36 OPR/114.0.0.0" version="26.0.2">
  <diagram name="Page-1" id="b5b7bab2-c9e2-2cf4-8b2a-24fd1a2a6d21">
    <mxGraphModel dx="1314" dy="562" grid="1" gridSize="10" guides="1" tooltips="1" connect="1" arrows="1" fold="1" page="1" pageScale="1" pageWidth="827" pageHeight="1169" background="none" math="0" shadow="0">
      <root>
        <mxCell id="0" />
        <mxCell id="1" parent="0" />
        <mxCell id="6e0c8c40b5770093-72" value="" style="shape=folder;fontStyle=1;spacingTop=10;tabWidth=194;tabHeight=22;tabPosition=left;html=1;rounded=0;shadow=0;comic=0;labelBackgroundColor=none;strokeWidth=1;fillColor=none;fontFamily=Verdana;fontSize=10;align=center;" parent="1" vertex="1">
          <mxGeometry x="326.5" y="114.5" width="1053.5" height="940" as="geometry" />
        </mxCell>
        <mxCell id="6e0c8c40b5770093-18" value="" style="group" parent="1" vertex="1" connectable="0">
          <mxGeometry x="370" y="290" width="198.5" height="130" as="geometry" />
        </mxCell>
        <mxCell id="6e0c8c40b5770093-11" value="" style="shape=folder;fontStyle=1;spacingTop=10;tabWidth=123;tabHeight=24;tabPosition=left;html=1;rounded=0;shadow=0;comic=0;labelBackgroundColor=none;strokeWidth=1;fontFamily=Verdana;fontSize=10;align=center;" parent="6e0c8c40b5770093-18" vertex="1">
          <mxGeometry width="198.5" height="130" as="geometry" />
        </mxCell>
        <mxCell id="6e0c8c40b5770093-13" value="" style="triangle;whiteSpace=wrap;html=1;rounded=0;shadow=0;comic=0;labelBackgroundColor=none;strokeWidth=1;fontFamily=Verdana;fontSize=10;align=center;rotation=-90;" parent="6e0c8c40b5770093-18" vertex="1">
          <mxGeometry x="100" width="10.63" height="20" as="geometry" />
        </mxCell>
        <mxCell id="6e0c8c40b5770093-15" value="&lt;div&gt;- Criar Clientes&lt;/div&gt;&lt;div&gt;- Atualizar Dados&lt;/div&gt;&lt;div&gt;- Eliminar Clientes&lt;/div&gt;&lt;div&gt;- Consultar Clientes&lt;/div&gt;" style="shape=folder;fontStyle=1;spacingTop=10;tabWidth=50;tabHeight=17;tabPosition=left;html=1;rounded=0;shadow=0;comic=0;labelBackgroundColor=none;strokeWidth=1;fontFamily=Verdana;fontSize=10;align=center;" parent="6e0c8c40b5770093-18" vertex="1">
          <mxGeometry x="20" y="40" width="160" height="80" as="geometry" />
        </mxCell>
        <mxCell id="ynBJV7dJaOZFq0SyiYF_-4" value="Ger.Clien" style="text;html=1;align=center;verticalAlign=middle;whiteSpace=wrap;rounded=0;" vertex="1" parent="6e0c8c40b5770093-18">
          <mxGeometry x="20" y="40" width="50" height="20" as="geometry" />
        </mxCell>
        <mxCell id="6e0c8c40b5770093-19" value="" style="group" parent="1" vertex="1" connectable="0">
          <mxGeometry x="850" y="260" width="460" height="170" as="geometry" />
        </mxCell>
        <mxCell id="6e0c8c40b5770093-20" value="" style="shape=folder;fontStyle=1;spacingTop=10;tabWidth=123;tabHeight=24;tabPosition=left;html=1;rounded=0;shadow=0;comic=0;labelBackgroundColor=none;strokeWidth=1;fontFamily=Verdana;fontSize=10;align=center;" parent="6e0c8c40b5770093-19" vertex="1">
          <mxGeometry width="459.99999999999994" height="169.99999999999997" as="geometry" />
        </mxCell>
        <mxCell id="6e0c8c40b5770093-22" value="- Registar Reserva&lt;div&gt;- Cancelar Reserva&lt;/div&gt;&lt;div&gt;- Alterar Estado Reserva&lt;/div&gt;&lt;div&gt;- Aceitar/Rejeitar Reserva&lt;/div&gt;&lt;div&gt;- Adicionar Tipo de Reserva&lt;/div&gt;" style="shape=folder;fontStyle=1;spacingTop=10;tabWidth=50;tabHeight=17;tabPosition=left;html=1;rounded=0;shadow=0;comic=0;labelBackgroundColor=none;strokeWidth=1;fontFamily=Verdana;fontSize=10;align=center;" parent="6e0c8c40b5770093-19" vertex="1">
          <mxGeometry x="20" y="52.31" width="210" height="91.54" as="geometry" />
        </mxCell>
        <mxCell id="6e0c8c40b5770093-23" value="&lt;div&gt;&lt;br&gt;&lt;/div&gt;&lt;div&gt;- Consultar Reserva&lt;/div&gt;- Consultar&amp;nbsp;&lt;div&gt;disponibilidade&lt;/div&gt;&lt;div&gt;de salas e&amp;nbsp;&lt;/div&gt;&lt;div&gt;equipamentos&lt;/div&gt;&lt;div&gt;- Consultar Tipo de reserva&lt;/div&gt;" style="shape=folder;fontStyle=1;spacingTop=10;tabWidth=50;tabHeight=17;tabPosition=left;html=1;rounded=0;shadow=0;comic=0;labelBackgroundColor=none;strokeWidth=1;fontFamily=Verdana;fontSize=10;align=center;" parent="6e0c8c40b5770093-19" vertex="1">
          <mxGeometry x="243.14" y="52.31" width="196.86" height="91.54" as="geometry" />
        </mxCell>
        <mxCell id="ynBJV7dJaOZFq0SyiYF_-2" value="Ger.Res" style="text;html=1;align=center;verticalAlign=middle;whiteSpace=wrap;rounded=0;" vertex="1" parent="6e0c8c40b5770093-19">
          <mxGeometry x="23.82" y="52.31" width="46.18" height="26.15" as="geometry" />
        </mxCell>
        <mxCell id="ynBJV7dJaOZFq0SyiYF_-3" value="Con.Res" style="text;html=1;align=center;verticalAlign=middle;whiteSpace=wrap;rounded=0;" vertex="1" parent="6e0c8c40b5770093-19">
          <mxGeometry x="235.75" y="52.31" width="64.25" height="26.15" as="geometry" />
        </mxCell>
        <mxCell id="ynBJV7dJaOZFq0SyiYF_-12" value="" style="triangle;whiteSpace=wrap;html=1;rounded=0;shadow=0;comic=0;labelBackgroundColor=none;strokeWidth=1;fontFamily=Verdana;fontSize=10;align=center;rotation=-90;" vertex="1" parent="6e0c8c40b5770093-19">
          <mxGeometry x="100" width="15" height="20" as="geometry" />
        </mxCell>
        <mxCell id="6e0c8c40b5770093-47" value="" style="shape=folder;fontStyle=1;spacingTop=10;tabWidth=123;tabHeight=24;tabPosition=left;html=1;rounded=0;shadow=0;comic=0;labelBackgroundColor=none;strokeWidth=1;fontFamily=Verdana;fontSize=10;align=center;" parent="1" vertex="1">
          <mxGeometry x="350" y="520" width="193.5" height="130" as="geometry" />
        </mxCell>
        <mxCell id="6e0c8c40b5770093-50" value="- Adicionar Sala&lt;div&gt;-Consultar TipoSala&lt;br&gt;&lt;div&gt;- Mostrar Sala&lt;/div&gt;&lt;div&gt;- Eliminar Sala&lt;/div&gt;&lt;div&gt;- Editar Sala&lt;/div&gt;&lt;/div&gt;" style="shape=folder;fontStyle=1;spacingTop=10;tabWidth=50;tabHeight=17;tabPosition=left;html=1;rounded=0;shadow=0;comic=0;labelBackgroundColor=none;strokeWidth=1;fontFamily=Verdana;fontSize=10;align=center;" parent="1" vertex="1">
          <mxGeometry x="361.75" y="560" width="170" height="90" as="geometry" />
        </mxCell>
        <mxCell id="6e0c8c40b5770093-62" style="edgeStyle=none;rounded=0;html=1;dashed=1;labelBackgroundColor=none;startFill=0;endArrow=open;endFill=0;endSize=10;fontFamily=Verdana;fontSize=10;entryX=0.001;entryY=0.475;entryDx=0;entryDy=0;entryPerimeter=0;exitX=0;exitY=0;exitDx=198.5;exitDy=50.5;exitPerimeter=0;" parent="1" source="6e0c8c40b5770093-11" target="6e0c8c40b5770093-20" edge="1">
          <mxGeometry relative="1" as="geometry">
            <mxPoint x="850" y="334" as="sourcePoint" />
            <mxPoint x="568.5" y="333.6186805131338" as="targetPoint" />
          </mxGeometry>
        </mxCell>
        <mxCell id="6e0c8c40b5770093-73" value="Reserva de Salas e Equipamentos" style="text;html=1;align=left;verticalAlign=top;spacingTop=-4;fontSize=10;fontFamily=Verdana" parent="1" vertex="1">
          <mxGeometry x="327.5" y="114.5" width="130" height="20" as="geometry" />
        </mxCell>
        <mxCell id="ynBJV7dJaOZFq0SyiYF_-7" value="Ges.Sala" style="text;html=1;align=center;verticalAlign=middle;whiteSpace=wrap;rounded=0;" vertex="1" parent="1">
          <mxGeometry x="364" y="560" width="50" height="20" as="geometry" />
        </mxCell>
        <mxCell id="ynBJV7dJaOZFq0SyiYF_-10" value="&lt;span style=&quot;font-family: Verdana; font-size: 10px; font-weight: 700; text-wrap: nowrap;&quot;&gt;Pacote de Reservas&amp;nbsp; &amp;nbsp; &amp;nbsp; &amp;nbsp; &amp;nbsp;&lt;/span&gt;" style="text;html=1;align=center;verticalAlign=middle;whiteSpace=wrap;rounded=0;" vertex="1" parent="1">
          <mxGeometry x="860" y="230" width="110" height="39.23" as="geometry" />
        </mxCell>
        <mxCell id="ynBJV7dJaOZFq0SyiYF_-14" value="&lt;span style=&quot;font-family: Verdana; font-size: 10px; font-weight: 700; text-wrap: nowrap;&quot;&gt;Pacote de Clientes&amp;nbsp; &amp;nbsp; &amp;nbsp; &amp;nbsp;&amp;nbsp;&lt;/span&gt;" style="text;html=1;align=center;verticalAlign=middle;whiteSpace=wrap;rounded=0;" vertex="1" parent="1">
          <mxGeometry x="380" y="260" width="110" height="39.23" as="geometry" />
        </mxCell>
        <mxCell id="ynBJV7dJaOZFq0SyiYF_-16" value="&lt;span style=&quot;font-family: Verdana; font-size: 10px; font-weight: 700; text-wrap: nowrap;&quot;&gt;Pacote de Salas&amp;nbsp; &amp;nbsp; &amp;nbsp; &amp;nbsp;&amp;nbsp;&lt;/span&gt;" style="text;html=1;align=center;verticalAlign=middle;whiteSpace=wrap;rounded=0;" vertex="1" parent="1">
          <mxGeometry x="359" y="490" width="110" height="39.23" as="geometry" />
        </mxCell>
        <mxCell id="ynBJV7dJaOZFq0SyiYF_-17" value="" style="triangle;whiteSpace=wrap;html=1;rounded=0;shadow=0;comic=0;labelBackgroundColor=none;strokeWidth=1;fontFamily=Verdana;fontSize=10;align=center;rotation=-90;" vertex="1" parent="1">
          <mxGeometry x="450.75" y="520" width="15" height="20" as="geometry" />
        </mxCell>
        <mxCell id="ynBJV7dJaOZFq0SyiYF_-19" value="" style="group" vertex="1" connectable="0" parent="1">
          <mxGeometry x="820" y="585" width="440" height="170" as="geometry" />
        </mxCell>
        <mxCell id="ynBJV7dJaOZFq0SyiYF_-20" value="" style="shape=folder;fontStyle=1;spacingTop=10;tabWidth=123;tabHeight=24;tabPosition=left;html=1;rounded=0;shadow=0;comic=0;labelBackgroundColor=none;strokeWidth=1;fontFamily=Verdana;fontSize=10;align=center;" vertex="1" parent="ynBJV7dJaOZFq0SyiYF_-19">
          <mxGeometry x="35.67567567567568" width="404.3243243243243" height="170" as="geometry" />
        </mxCell>
        <mxCell id="ynBJV7dJaOZFq0SyiYF_-21" value="- Enviar Notificação&lt;div&gt;Sobre reserva&lt;/div&gt;" style="shape=folder;fontStyle=1;spacingTop=10;tabWidth=50;tabHeight=17;tabPosition=left;html=1;rounded=0;shadow=0;comic=0;labelBackgroundColor=none;strokeWidth=1;fontFamily=Verdana;fontSize=10;align=center;" vertex="1" parent="ynBJV7dJaOZFq0SyiYF_-19">
          <mxGeometry x="60" y="52.31" width="160" height="91.54" as="geometry" />
        </mxCell>
        <mxCell id="ynBJV7dJaOZFq0SyiYF_-22" value="- Enviar Notificação&lt;div&gt;sobre orçamento&lt;/div&gt;" style="shape=folder;fontStyle=1;spacingTop=10;tabWidth=50;tabHeight=17;tabPosition=left;html=1;rounded=0;shadow=0;comic=0;labelBackgroundColor=none;strokeWidth=1;fontFamily=Verdana;fontSize=10;align=center;" vertex="1" parent="ynBJV7dJaOZFq0SyiYF_-19">
          <mxGeometry x="260" y="52.31" width="160.87" height="91.54" as="geometry" />
        </mxCell>
        <mxCell id="ynBJV7dJaOZFq0SyiYF_-23" value="Not.Res" style="text;html=1;align=center;verticalAlign=middle;whiteSpace=wrap;rounded=0;" vertex="1" parent="ynBJV7dJaOZFq0SyiYF_-19">
          <mxGeometry x="64.34623971797888" y="52.31" width="44.17217391304348" height="26.15" as="geometry" />
        </mxCell>
        <mxCell id="ynBJV7dJaOZFq0SyiYF_-24" value="Not.Orç" style="text;html=1;align=center;verticalAlign=middle;whiteSpace=wrap;rounded=0;" vertex="1" parent="ynBJV7dJaOZFq0SyiYF_-19">
          <mxGeometry x="249.99918918918922" y="52.31" width="61.456521739130444" height="26.15" as="geometry" />
        </mxCell>
        <mxCell id="ynBJV7dJaOZFq0SyiYF_-25" value="" style="triangle;whiteSpace=wrap;html=1;rounded=0;shadow=0;comic=0;labelBackgroundColor=none;strokeWidth=1;fontFamily=Verdana;fontSize=10;align=center;rotation=-90;" vertex="1" parent="ynBJV7dJaOZFq0SyiYF_-19">
          <mxGeometry x="132.15" y="2.84" width="15.69" height="20" as="geometry" />
        </mxCell>
        <mxCell id="ynBJV7dJaOZFq0SyiYF_-28" value="&lt;span style=&quot;font-family: Verdana; font-size: 10px; font-weight: 700; text-wrap: nowrap;&quot;&gt;Pacote de Notificação&amp;nbsp; &amp;nbsp; &amp;nbsp; &amp;nbsp;&amp;nbsp;&lt;/span&gt;" style="text;html=1;align=center;verticalAlign=middle;whiteSpace=wrap;rounded=0;" vertex="1" parent="1">
          <mxGeometry x="880" y="550.39" width="100" height="39.23" as="geometry" />
        </mxCell>
        <mxCell id="ynBJV7dJaOZFq0SyiYF_-30" value="" style="shape=folder;fontStyle=1;spacingTop=10;tabWidth=123;tabHeight=24;tabPosition=left;html=1;rounded=0;shadow=0;comic=0;labelBackgroundColor=none;strokeWidth=1;fontFamily=Verdana;fontSize=10;align=center;" vertex="1" parent="1">
          <mxGeometry x="626.5" y="520" width="193.5" height="130" as="geometry" />
        </mxCell>
        <mxCell id="ynBJV7dJaOZFq0SyiYF_-31" value="- Adicionar Equipamento&lt;div&gt;-Consultar TipoEquipamento&lt;br&gt;&lt;div&gt;- Mostrar Equipamento&lt;/div&gt;&lt;div&gt;- Eliminar Equipamento&lt;/div&gt;&lt;div&gt;- Editar Equipamento&lt;/div&gt;&lt;/div&gt;" style="shape=folder;fontStyle=1;spacingTop=10;tabWidth=50;tabHeight=17;tabPosition=left;html=1;rounded=0;shadow=0;comic=0;labelBackgroundColor=none;strokeWidth=1;fontFamily=Verdana;fontSize=10;align=center;" vertex="1" parent="1">
          <mxGeometry x="638.25" y="560" width="170" height="90" as="geometry" />
        </mxCell>
        <mxCell id="ynBJV7dJaOZFq0SyiYF_-32" value="&lt;span style=&quot;font-family: Verdana; font-size: 10px; font-weight: 700; text-wrap: nowrap;&quot;&gt;Pacote de Equipamentos&amp;nbsp; &amp;nbsp; &amp;nbsp; &amp;nbsp;&lt;/span&gt;" style="text;html=1;align=center;verticalAlign=middle;whiteSpace=wrap;rounded=0;" vertex="1" parent="1">
          <mxGeometry x="650" y="490" width="110" height="39.23" as="geometry" />
        </mxCell>
        <mxCell id="ynBJV7dJaOZFq0SyiYF_-33" value="" style="triangle;whiteSpace=wrap;html=1;rounded=0;shadow=0;comic=0;labelBackgroundColor=none;strokeWidth=1;fontFamily=Verdana;fontSize=10;align=center;rotation=-90;" vertex="1" parent="1">
          <mxGeometry x="730" y="520" width="15.75" height="20" as="geometry" />
        </mxCell>
        <mxCell id="ynBJV7dJaOZFq0SyiYF_-34" value="Ges.Equi" style="text;html=1;align=center;verticalAlign=middle;whiteSpace=wrap;rounded=0;" vertex="1" parent="1">
          <mxGeometry x="638.25" y="555" width="51.75" height="30" as="geometry" />
        </mxCell>
        <mxCell id="ynBJV7dJaOZFq0SyiYF_-35" style="edgeStyle=none;rounded=0;html=1;dashed=1;labelBackgroundColor=none;startFill=0;endArrow=open;endFill=0;endSize=10;fontFamily=Verdana;fontSize=10;exitX=0.003;exitY=0.911;exitDx=0;exitDy=0;exitPerimeter=0;entryX=0;entryY=0;entryDx=158.25;entryDy=24;entryPerimeter=0;" edge="1" parent="1" source="6e0c8c40b5770093-20" target="6e0c8c40b5770093-47">
          <mxGeometry relative="1" as="geometry">
            <mxPoint x="860" y="430.38" as="sourcePoint" />
            <mxPoint x="850" y="400" as="targetPoint" />
          </mxGeometry>
        </mxCell>
        <mxCell id="ynBJV7dJaOZFq0SyiYF_-36" style="edgeStyle=none;rounded=0;html=1;dashed=1;labelBackgroundColor=none;startFill=0;endArrow=open;endFill=0;endSize=10;fontFamily=Verdana;fontSize=10;exitX=0.927;exitY=0.208;exitDx=0;exitDy=0;exitPerimeter=0;entryX=0.283;entryY=1.005;entryDx=0;entryDy=0;entryPerimeter=0;strokeColor=none;" edge="1" parent="1" source="ynBJV7dJaOZFq0SyiYF_-30" target="6e0c8c40b5770093-20">
          <mxGeometry relative="1" as="geometry">
            <mxPoint x="860" y="450.38" as="sourcePoint" />
            <mxPoint x="578.5" y="449.9986805131338" as="targetPoint" />
          </mxGeometry>
        </mxCell>
        <mxCell id="ynBJV7dJaOZFq0SyiYF_-37" style="edgeStyle=none;rounded=0;html=1;dashed=1;labelBackgroundColor=none;startFill=0;endArrow=open;endFill=0;endSize=10;fontFamily=Verdana;fontSize=10;entryX=0.766;entryY=0.156;entryDx=0;entryDy=0;entryPerimeter=0;" edge="1" parent="1" target="ynBJV7dJaOZFq0SyiYF_-30">
          <mxGeometry relative="1" as="geometry">
            <mxPoint x="970" y="430" as="sourcePoint" />
            <mxPoint x="518" y="554" as="targetPoint" />
          </mxGeometry>
        </mxCell>
        <mxCell id="ynBJV7dJaOZFq0SyiYF_-38" style="edgeStyle=none;rounded=0;html=1;dashed=1;labelBackgroundColor=none;startFill=0;endArrow=open;endFill=0;endSize=10;fontFamily=Verdana;fontSize=10;exitX=0.516;exitY=0.138;exitDx=0;exitDy=0;exitPerimeter=0;" edge="1" parent="1" source="ynBJV7dJaOZFq0SyiYF_-20">
          <mxGeometry relative="1" as="geometry">
            <mxPoint x="1040" y="510" as="sourcePoint" />
            <mxPoint x="1130" y="430" as="targetPoint" />
          </mxGeometry>
        </mxCell>
      </root>
    </mxGraphModel>
  </diagram>
</mxfile>
